<svg xmlns="http://www.w3.org/2000/svg" viewBox="0 0 440 240" role="img">

  <style>
    .spin  { transform-box: fill-box; transform-origin: center; animation: spin 6s linear infinite; }
    .spinR { transform-box: fill-box; transform-origin: center; animation: spin 5s linear infinite reverse; }
    .flow  { animation: flow 1.6s linear infinite; }
    .pulse { animation: pulse 2.4s ease-in-out infinite; }
    .breathe { transform-box: fill-box; transform-origin: center; animation: breathe 3.4s ease-in-out infinite; }
    .ping  { transform-box: fill-box; transform-origin: center; animation: ping 2.6s ease-out infinite; }
    .blink { animation: blink 2.2s ease-in-out infinite; }
    @keyframes spin    { to { transform: rotate(360deg); } }
    @keyframes flow    { to { stroke-dashoffset: -32; } }
    @keyframes pulse   { 0%,100% { opacity: .35; } 50% { opacity: 1; } }
    @keyframes breathe { 0%,100% { transform: scale(1); } 50% { transform: scale(1.04); } }
    @keyframes ping    { 0% { transform: scale(.5); opacity: .6; } 100% { transform: scale(2.2); opacity: 0; } }
    @keyframes blink   { 0%,100% { opacity: .2; } 50% { opacity: 1; } }
    @media (prefers-reduced-motion: reduce) {
      .spin,.spinR,.flow,.pulse,.breathe,.ping,.blink { animation: none; }
    }
  </style>
  <rect x="6" y="6" width="428" height="228" rx="16" fill="#f6f8fa" stroke="#e7ebf0" stroke-width="1"/>
<text x="300" y="32" text-anchor="middle" font-family="'Sora','Segoe UI',system-ui,sans-serif" font-size="11" font-weight="700" letter-spacing="1" fill="#66707d">YOUR TEAM</text><circle cx="300" cy="112" r="82" fill="none" stroke="#66707d" stroke-opacity="0.4" stroke-width="1.5" stroke-dasharray="4 5"/><line class="pulse" style="animation-delay:0.00s" x1="300" y1="112" x2="300.0" y2="66.0" stroke="#d6dce3" stroke-width="1.5"/><line class="pulse" style="animation-delay:0.30s" x1="300" y1="112" x2="339.8" y2="89.0" stroke="#d6dce3" stroke-width="1.5"/><line class="pulse" style="animation-delay:0.60s" x1="300" y1="112" x2="339.8" y2="135.0" stroke="#d6dce3" stroke-width="1.5"/><line class="pulse" style="animation-delay:0.90s" x1="300" y1="112" x2="300.0" y2="158.0" stroke="#d6dce3" stroke-width="1.5"/><line class="pulse" style="animation-delay:1.20s" x1="300" y1="112" x2="260.2" y2="135.0" stroke="#d6dce3" stroke-width="1.5"/><circle cx="300" cy="112" r="8" fill="#aab3bf"/><g transform="translate(300.0,66.0)"><circle r="12" fill="#fff" stroke="#aab3bf" stroke-width="2"/>
    <circle cx="0" cy="-3" r="3.6" fill="#aab3bf"/>
    <path d="M-6 7 a6 6 0 0 1 12 0" fill="#aab3bf"/></g><g transform="translate(339.8,89.0)"><circle r="12" fill="#fff" stroke="#aab3bf" stroke-width="2"/>
    <circle cx="0" cy="-3" r="3.6" fill="#aab3bf"/>
    <path d="M-6 7 a6 6 0 0 1 12 0" fill="#aab3bf"/></g><g transform="translate(339.8,135.0)"><g class="breathe" style="animation-delay:0.80s"><circle r="12" fill="#fff" stroke="#f57c00" stroke-width="2"/>
    <circle cx="0" cy="-3" r="3.6" fill="#f57c00"/>
    <path d="M-6 7 a6 6 0 0 1 12 0" fill="#f57c00"/></g></g><g transform="translate(300.0,158.0)"><circle r="12" fill="#fff" stroke="#aab3bf" stroke-width="2"/>
    <circle cx="0" cy="-3" r="3.6" fill="#aab3bf"/>
    <path d="M-6 7 a6 6 0 0 1 12 0" fill="#aab3bf"/></g><g transform="translate(260.2,135.0)"><g class="breathe" style="animation-delay:1.60s"><circle r="12" fill="#fff" stroke="#f57c00" stroke-width="2"/>
    <circle cx="0" cy="-3" r="3.6" fill="#f57c00"/>
    <path d="M-6 7 a6 6 0 0 1 12 0" fill="#f57c00"/></g></g><circle cx="260.2" cy="89.0" r="12" fill="#fff" stroke="#f57c00" stroke-width="1.6" stroke-dasharray="3 3"/><circle class="ping" cx="260.2" cy="89.0" r="12" fill="none" stroke="#f57c00" stroke-width="1.4"/><text x="66" y="44" text-anchor="middle" font-family="'Sora','Segoe UI',system-ui,sans-serif" font-size="11" font-weight="700" letter-spacing="1" fill="#f57c00">TAG TALENT</text><g transform="translate(66,88) scale(0.72)"><circle r="12" fill="#fff" stroke="#f57c00" stroke-width="2"/>
    <circle cx="0" cy="-3" r="3.6" fill="#f57c00"/>
    <path d="M-6 7 a6 6 0 0 1 12 0" fill="#f57c00"/></g><g transform="translate(66,116) scale(0.72)"><circle r="12" fill="#fff" stroke="#f57c00" stroke-width="2"/>
    <circle cx="0" cy="-3" r="3.6" fill="#f57c00"/>
    <path d="M-6 7 a6 6 0 0 1 12 0" fill="#f57c00"/></g><g transform="translate(66,144) scale(0.72)"><circle r="12" fill="#fff" stroke="#f57c00" stroke-width="2"/>
    <circle cx="0" cy="-3" r="3.6" fill="#f57c00"/>
    <path d="M-6 7 a6 6 0 0 1 12 0" fill="#f57c00"/></g><g opacity="0"><circle r="9.600000000000001" fill="#fff" stroke="#f57c00" stroke-width="2"/>
    <circle cx="0" cy="-2.4000000000000004" r="2.8800000000000003" fill="#f57c00"/>
    <path d="M-4.800000000000001 5.6000000000000005 a4.800000000000001 4.800000000000001 0 0 1 9.600000000000001 0" fill="#f57c00"/>
    <animateMotion dur="3.2s" begin="0s" repeatCount="indefinite" path="M66 116 Q 150 40 260 89" calcMode="linear"/>
    <animate attributeName="opacity" dur="3.2s" begin="0s" repeatCount="indefinite" values="0;1;1;0" keyTimes="0;0.12;0.8;1"/></g><g opacity="0"><circle r="9.600000000000001" fill="#fff" stroke="#f57c00" stroke-width="2"/>
    <circle cx="0" cy="-2.4000000000000004" r="2.8800000000000003" fill="#f57c00"/>
    <path d="M-4.800000000000001 5.6000000000000005 a4.800000000000001 4.800000000000001 0 0 1 9.600000000000001 0" fill="#f57c00"/>
    <animateMotion dur="3.2s" begin="1.6s" repeatCount="indefinite" path="M66 116 Q 150 40 260 89" calcMode="linear"/>
    <animate attributeName="opacity" dur="3.2s" begin="1.6s" repeatCount="indefinite" values="0;1;1;0" keyTimes="0;0.12;0.8;1"/></g><g opacity="0"><circle r="9.600000000000001" fill="#fff" stroke="#f57c00" stroke-width="2"/>
    <circle cx="0" cy="-2.4000000000000004" r="2.8800000000000003" fill="#f57c00"/>
    <path d="M-4.800000000000001 5.6000000000000005 a4.800000000000001 4.800000000000001 0 0 1 9.600000000000001 0" fill="#f57c00"/>
    <animateMotion dur="3.8s" begin="0.8s" repeatCount="indefinite" path="M66 116 Q 200 205 340 135" calcMode="linear"/>
    <animate attributeName="opacity" dur="3.8s" begin="0.8s" repeatCount="indefinite" values="0;1;1;0" keyTimes="0;0.12;0.8;1"/></g><text x="220" y="224" text-anchor="middle" font-family="'Sora','Segoe UI',system-ui,sans-serif" font-size="13" font-weight="600" fill="#66707d">Vetted engineers plug into your team</text>
</svg>