<svg xmlns="http://www.w3.org/2000/svg" viewBox="0 0 440 240" role="img">

  <style>
    .spin  { transform-box: fill-box; transform-origin: center; animation: spin 6s linear infinite; }
    .spinR { transform-box: fill-box; transform-origin: center; animation: spin 5s linear infinite reverse; }
    .flow  { animation: flow 1.6s linear infinite; }
    .pulse { animation: pulse 2.4s ease-in-out infinite; }
    .breathe { transform-box: fill-box; transform-origin: center; animation: breathe 3.4s ease-in-out infinite; }
    .ping  { transform-box: fill-box; transform-origin: center; animation: ping 2.6s ease-out infinite; }
    .blink { animation: blink 2.2s ease-in-out infinite; }
    @keyframes spin    { to { transform: rotate(360deg); } }
    @keyframes flow    { to { stroke-dashoffset: -32; } }
    @keyframes pulse   { 0%,100% { opacity: .35; } 50% { opacity: 1; } }
    @keyframes breathe { 0%,100% { transform: scale(1); } 50% { transform: scale(1.04); } }
    @keyframes ping    { 0% { transform: scale(.5); opacity: .6; } 100% { transform: scale(2.2); opacity: 0; } }
    @keyframes blink   { 0%,100% { opacity: .2; } 50% { opacity: 1; } }
    @media (prefers-reduced-motion: reduce) {
      .spin,.spinR,.flow,.pulse,.breathe,.ping,.blink { animation: none; }
    }
  </style>
  <rect x="6" y="6" width="428" height="228" rx="16" fill="#f6f8fa" stroke="#e7ebf0" stroke-width="1"/>
<text x="300" y="30" text-anchor="middle" font-family="'Sora','Segoe UI',system-ui,sans-serif" font-size="11" font-weight="700" letter-spacing="1" fill="#66707d">YOUR MISSION</text><rect x="188" y="42" width="224" height="150" rx="14" fill="none" stroke="#66707d" stroke-opacity="0.4" stroke-width="1.5" stroke-dasharray="4 5"/><g transform="translate(384,112) scale(0.85)"><circle r="12" fill="#fff" stroke="#aab3bf" stroke-width="2"/>
    <circle cx="0" cy="-3" r="3.6" fill="#aab3bf"/>
    <path d="M-6 7 a6 6 0 0 1 12 0" fill="#aab3bf"/></g><text x="384" y="150" text-anchor="middle" font-family="'Sora','Segoe UI',system-ui,sans-serif" font-size="10" font-weight="700" letter-spacing="1" fill="#66707d">YOU</text><g class="breathe"><rect x="150" y="74" width="150" height="108" rx="12" fill="#fff" stroke="#f57c00" stroke-width="2"/><line x1="184" y1="114" x2="242" y2="104" stroke="#f57c00" stroke-opacity="0.22" stroke-width="1.2"/><line x1="184" y1="114" x2="268" y2="136" stroke="#f57c00" stroke-opacity="0.22" stroke-width="1.2"/><line x1="184" y1="114" x2="236" y2="156" stroke="#f57c00" stroke-opacity="0.22" stroke-width="1.2"/><line x1="184" y1="114" x2="202" y2="154" stroke="#f57c00" stroke-opacity="0.22" stroke-width="1.2"/><line x1="242" y1="104" x2="268" y2="136" stroke="#f57c00" stroke-opacity="0.22" stroke-width="1.2"/><line x1="242" y1="104" x2="236" y2="156" stroke="#f57c00" stroke-opacity="0.22" stroke-width="1.2"/><line x1="242" y1="104" x2="202" y2="154" stroke="#f57c00" stroke-opacity="0.22" stroke-width="1.2"/><line x1="268" y1="136" x2="236" y2="156" stroke="#f57c00" stroke-opacity="0.22" stroke-width="1.2"/><line x1="268" y1="136" x2="202" y2="154" stroke="#f57c00" stroke-opacity="0.22" stroke-width="1.2"/><line x1="236" y1="156" x2="202" y2="154" stroke="#f57c00" stroke-opacity="0.22" stroke-width="1.2"/><g transform="translate(242,104) scale(0.62)"><g class="breathe" style="animation-delay:0.00s"><circle r="12" fill="#fff" stroke="#f57c00" stroke-width="2"/>
    <circle cx="0" cy="-3" r="3.6" fill="#f57c00"/>
    <path d="M-6 7 a6 6 0 0 1 12 0" fill="#f57c00"/></g></g><g transform="translate(268,136) scale(0.62)"><g class="breathe" style="animation-delay:0.35s"><circle r="12" fill="#fff" stroke="#f57c00" stroke-width="2"/>
    <circle cx="0" cy="-3" r="3.6" fill="#f57c00"/>
    <path d="M-6 7 a6 6 0 0 1 12 0" fill="#f57c00"/></g></g><g transform="translate(236,156) scale(0.62)"><g class="breathe" style="animation-delay:0.70s"><circle r="12" fill="#fff" stroke="#f57c00" stroke-width="2"/>
    <circle cx="0" cy="-3" r="3.6" fill="#f57c00"/>
    <path d="M-6 7 a6 6 0 0 1 12 0" fill="#f57c00"/></g></g><g transform="translate(202,154) scale(0.62)"><g class="breathe" style="animation-delay:1.05s"><circle r="12" fill="#fff" stroke="#f57c00" stroke-width="2"/>
    <circle cx="0" cy="-3" r="3.6" fill="#f57c00"/>
    <path d="M-6 7 a6 6 0 0 1 12 0" fill="#f57c00"/></g></g><g transform="translate(184,114) scale(0.9)"><circle r="12" fill="#fff" stroke="#f57c00" stroke-width="2"/>
    <circle cx="0" cy="-3" r="3.6" fill="#f57c00"/>
    <path d="M-6 7 a6 6 0 0 1 12 0" fill="#f57c00"/></g></g><text x="225" y="202" text-anchor="middle" font-family="'Sora','Segoe UI',system-ui,sans-serif" font-size="10" font-weight="700" letter-spacing="1" fill="#f57c00">TAG SQUAD</text><g><animateTransform attributeName="transform" attributeType="XML" type="rotate" from="0 156 72" to="360 156 72" dur="5s" repeatCount="indefinite"/><circle cx="156" cy="72" r="14" fill="none" stroke="#f57c00" stroke-width="2" stroke-dasharray="30 14"/><path d="M168 65 l6 -1 -1 6 z" fill="#f57c00"/></g><path class="flow" d="M300 116 L372 110" stroke="#f57c00" stroke-opacity="0.5" stroke-width="1.6" stroke-dasharray="4 4" fill="none"/><g opacity="0"><circle r="3.2" fill="#f57c00"/>
    <animateMotion dur="1.8s" begin="0s" repeatCount="indefinite" path="M300 116 L372 110" calcMode="linear"/>
    </g><g opacity="0"><circle r="3" fill="#aab3bf"/>
    <animateMotion dur="1.8s" begin="0.9s" repeatCount="indefinite" path="M372 124 L300 128" calcMode="linear"/>
    </g><text x="220" y="224" text-anchor="middle" font-family="'Sora','Segoe UI',system-ui,sans-serif" font-size="13" font-weight="600" fill="#66707d">A full squad, embedded in your mission</text>
</svg>