<svg xmlns="http://www.w3.org/2000/svg" viewBox="0 0 397.2 129.05" id="meta">
  <g id="Layer_2">
    <g id="Layer_1-2">
      <g id="meta">
        <path d="M104.2,43.05c24.45,49.21,53.68,80.07,70.36,74.76,20.42-6.51,32.09-70.5,2.2-97.3-.95-.84-19.54-18.29-39-11.54-14.29,4.95-18.67,12.51-42.33,51.12-27,44.06-34.77,57.9-50.57,61-1,.19-15.15,2.78-25.28-5.49C-4.71,95.79,9.6,26.2,43.18,13.37c10.43-4,21.08-2.32,24.19-1.1C92.65,22.16,102.41,39.41,104.2,43.05Z" style="fill:none;stroke:#0071bc;stroke-miterlimit:10;stroke-width:14.84px"></path>
        <path d="M271.75 104a1 1 0 0 1-1.09 1.09c-.53 0-1.32 0-2.38-.13s-1.86-.13-2.39-.13-1.32 0-2.4.13-1.88.13-2.41.13c-.73 0-1.09-.48-1.09-1.44q0-5.57.35-16.66t.35-16.66c0-.56-.12-.84-.35-.84a.68.68 0 0 0-.61.49q-2.24 4.76-10.54 25.45-1.35 4-3.89 9.92-.31.57-3.15.57c-2.74 0-4.26-.25-4.55-.74-1-2.37-2.4-5.67-4.24-9.93q-3.63-8.66-11.15-25.8a1.59 1.59 0 0 0-.57-.61 1.13 1.13 0 0 0-.35 1q0 5.64.2 16.92t.2 16.93c0 1-.37 1.44-1.1 1.44-.49 0-1.25 0-2.27-.13s-1.78-.13-2.28-.13-1.3 0-2.33.13-1.82.13-2.34.13c-.73 0-1.1-.28-1.1-.83q0-4.86.46-14.54t.46-14.54q0-5-.46-15.11T210.27 45c0-.55.34-.87 1-1a75.71 75.71 0 0 1 9-.79q.44 0 1.23 1.8Q232 68.28 239.66 86.55c1.19 2.86 1.91 4.28 2.14 4.28s.92-1.16 1.88-3.49q5.94-14.18 16.49-42.07.65-1.71 1.44-1.71c1 0 2.48.06 4.48.18s3.49.17 4.48.17c.73 0 1.09.35 1.09 1.05q0 5-.32 15.11T271 75.18q0 4.81.37 14.43T271.75 104ZM318 81.61a4.22 4.22 0 0 1-2.8 4.33q-1.87.69-27.06 2.58a9.86 9.86 0 0 0 4.24 6.56 12.43 12.43 0 0 0 7.52 2.58 20.26 20.26 0 0 0 12.68-4.47l1.4-1.13a.79.79 0 0 1 .46.09c.07 0 .62 1.07 1.64 3a26.91 26.91 0 0 1 1.53 3.17c0 .18-.24.51-.7 1a21.65 21.65 0 0 1-16.49 6.82q-10.14 0-16.18-6.05t-6-16.16A23.26 23.26 0 0 1 284 68.27a19.07 19.07 0 0 1 14.91-6.95 17.83 17.83 0 0 1 13.73 6A20.31 20.31 0 0 1 318 81.61Zm-10.41-2.67a8.75 8.75 0 0 0-2.86-6.43 9 9 0 0 0-6.45-2.8A9.69 9.69 0 0 0 291.1 73 10.22 10.22 0 0 0 288 80.21c0 .61.52.92 1.57.92A109.2 109.2 0 0 0 305 79.81C306.72 79.58 307.56 79.29 307.56 78.94ZM348.45 97c0 .64-.06 1.52-.17 2.63-.15 1.37-.24 2.26-.27 2.66a3.45 3.45 0 0 1-.13 1 1.91 1.91 0 0 1-.83.61q-3.58 1.71-11.28 1.7-10.23 0-10.23-9.27c0-2.47.06-6.2.17-11.17s.18-8.69.18-11.17a1.73 1.73 0 0 0-1.8-1.93c-1.08 0-2.14 0-3.19 0-.61-.14-.92-1.34-.92-3.58a20.88 20.88 0 0 1 .18-2.67c.09-.7.55-1.12 1.4-1.27s1.44 0 2.14 0q2-.09 2-1.8c0-1.16 0-2.94-.11-5.33s-.11-4.18-.11-5.38c0-2.13.41-3.19 1.23-3.19q.39 0 8.22 1.35c.67.09 1 .41 1 1q0 1.92-.28 5.77c-.19 2.56-.28 4.49-.28 5.77 0 .85.39 1.27 1.18 1.27h10.49c.5 0 .74.17.74.52a15 15 0 0 1-.15 1.69 14.85 14.85 0 0 0-.15 1.72c0 .44 0 1.11 0 2s.05 1.58.05 2-.41.83-1.23.83c-1.17 0-2.93-.08-5.29-.24s-4.13-.24-5.29-.24c-.23 0-.41.83-.53 2.49q-.21 3.1-.21 8.7v6.51a13.82 13.82 0 0 0 .69 5.25c.7 1.52 2.15 2.28 4.33 2.28a20 20 0 0 0 4-.59 19.28 19.28 0 0 1 3.9-.59C348.28 96.26 348.45 96.52 348.45 97ZM397.2 65.52a4.83 4.83 0 0 1-.13.78 105.83 105.83 0 0 0-1.7 17.27q0 .45 1.09 19.64l.05.61c0 .85-.36 1.27-1.16 1.27a33.78 33.78 0 0 0-3.63.28 34.51 34.51 0 0 1-3.61.29c-.55 0-1-1-1.27-3.06s-.57-3.07-.83-3.07a11.53 11.53 0 0 0-2.36 1.71 25.69 25.69 0 0 1-4.81 3.19 15.13 15.13 0 0 1-6.91 1.75 18.13 18.13 0 0 1-14.3-6.78 22.56 22.56 0 0 1-5.51-15.08q0-9.7 5.56-16 5.81-6.6 15.3-6.6a16.62 16.62 0 0 1 11.68 4.63c.49.59 1.26 1.43 2.31 2.54a.38.38 0 0 0 .27.13c.17 0 .42-.92.74-2.75s.73-2.76 1.22-2.76a27 27 0 0 1 4.42.66C396 64.64 397.2 65.11 397.2 65.52ZM386.06 83.79a14 14 0 0 0-3.2-9.22 10.59 10.59 0 0 0-8.61-4.16 11 11 0 0 0-8.75 4.11 13.85 13.85 0 0 0-3.36 9.27A13.62 13.62 0 0 0 365.5 93 11.08 11.08 0 0 0 374.25 97a10.71 10.71 0 0 0 8.57-4.15A13.8 13.8 0 0 0 386.06 83.79Z" style="fill:#00272e"></path>
      </g>
    </g>
  </g>
</svg>
